<?xml version="1.0" standalone="no"?><!DOCTYPE svg PUBLIC "-//W3C//DTD SVG 1.1//EN" "http://www.w3.org/Graphics/SVG/1.1/DTD/svg11.dtd"><svg t="1538140621463" class="icon" style="" viewBox="0 0 1024 1024" version="1.1" xmlns="http://www.w3.org/2000/svg" p-id="2644" xmlns:xlink="http://www.w3.org/1999/xlink" width="200" height="200"><defs><style type="text/css"></style></defs><path d="M512 0.5C229.5 0.5 0.5 229.5 0.5 512s229 511.5 511.5 511.5 511.5-229 511.5-511.5S794.5 0.5 512 0.5z m255 555.8c-12.8 11.4-31.7 11.5-44.5 0.9-1.5-1.1-2.9-2.2-4.2-3.6L546.7 381.5V726c0 18.9-15.3 34.1-34.1 34.1s-34.1-15.2-34.1-34.1V381.4L306.6 553.6c-6.6 5.9-14.8 8.7-23 8.7-9.4 0-18.8-3.8-25.6-11.4-11.6-13-11.6-32.5 0-45.5l230.2-230.2c6.7-6.7 15.5-10 24.3-10s17.6 3.3 24.3 10L767 505.4c1 0.9 1.9 1.8 2.7 2.7 12.6 14 11.3 35.6-2.7 48.2z" p-id="2645" fill="#2c2c2c"></path></svg>