<?xml version="1.0" standalone="no"?><!DOCTYPE svg PUBLIC "-//W3C//DTD SVG 1.1//EN" "http://www.w3.org/Graphics/SVG/1.1/DTD/svg11.dtd"><svg t="1537926614987" class="icon" style="" viewBox="0 0 1024 1024" version="1.1" xmlns="http://www.w3.org/2000/svg" p-id="1061" xmlns:xlink="http://www.w3.org/1999/xlink" width="200" height="200"><defs><style type="text/css"></style></defs><path d="M1015.765896 976.493103l-246.806488-246.78349c31.377629-35.545182 56.612919-75.58788 75.135929-119.369177 22.925537-54.18318 34.544289-111.725998 34.544289-171.028628 0-59.279632-11.618752-116.820451-34.544289-171.00563-22.116624-52.304381-53.780223-99.299333-94.133888-139.628001-40.327668-40.328668-87.32362-72.015264-139.628001-94.132888C556.151268 11.619752 498.60945 0.002 439.329818 0.002c-59.30263 0-116.843448 11.617752-171.004631 34.543289-52.326379 22.117624-99.297333 53.80422-139.649998 94.132888-40.328668 40.328668-71.992266 87.32362-94.132888 139.628001C11.616763 322.491357 0.000011 380.033176 0.000011 439.312808c0 59.30263 11.616752 116.845448 34.543289 171.028628 22.140622 52.305381 53.80422 99.275336 94.132889 139.628001 40.352665 40.330668 87.32362 72.016264 139.649998 94.133888 54.161182 22.926537 111.702001 34.544289 171.00463 34.544289 59.279632 0 116.821451-11.617752 171.003631-34.544289 43.781297-18.52201 83.823995-43.758299 119.368177-75.133929l246.805488 246.806487c5.40342 5.40242 12.522655 8.117128 19.617892 8.117128a27.753019 27.753019 0 0 0 19.640891-8.117128c10.830837-10.857834 10.830837-28.425946-0.001-39.28278zM439.329818 829.366908c-104.177809 0-202.143285-40.567642-275.825371-114.22573C89.84636 641.458093 49.278718 543.491617 49.278718 439.312808s40.568642-202.121288 114.225729-275.803372c73.682085-73.682085 171.648561-114.249727 275.825371-114.249728 104.179809 0 202.121288 40.567642 275.803372 114.249728 73.681085 73.683085 114.247727 171.624564 114.247728 275.803372 0 102.180024-39.042806 198.358692-110.03418 271.494836-1.665821 1.095882-3.26165 2.355747-4.712494 3.81059a28.181973 28.181973 0 0 0-3.810591 4.712494c-73.159141 71.014372-169.314812 110.03618-271.493835 110.03618z" fill="#ffffff" p-id="1062"></path></svg>