<?xml version="1.0" standalone="no"?><!DOCTYPE svg PUBLIC "-//W3C//DTD SVG 1.1//EN" "http://www.w3.org/Graphics/SVG/1.1/DTD/svg11.dtd"><svg t="1538139962082" class="icon" style="" viewBox="0 0 1893 1024" version="1.1" xmlns="http://www.w3.org/2000/svg" p-id="1919" xmlns:xlink="http://www.w3.org/1999/xlink" width="369.7265625" height="200"><defs><style type="text/css"></style></defs><path d="M1260.38703525 341.33333328H618.86839125C571.68765925 341.33333328 533.33333325 380.73815028 533.33333325 429.18632128v439.230687c0 48.448171 38.354326 87.852988 85.535058 87.852989h85.329527a21.968956 21.968956 0 0 0 0-43.926495H618.86839125c-23.567529 0-42.76182-19.719536-42.76182-43.926494V429.18632128c0-24.218376 19.194291-43.926494 42.76182-43.926494h641.518644c23.578947 0 42.76182 19.708118 42.76182 43.926494v439.230687c0 24.206958-19.182872 43.926494-42.76182 43.926494H896.91727625a21.078323 21.078323 0 0 0-15.117931 6.439965l-192.513826 197.640678a22.391436 22.391436 0 0 0 0 31.057984 20.986976 20.986976 0 0 0 30.23586 0l186.256557-191.212132h354.609099c47.169313 0 85.535058-39.404817 85.535058-87.852989V429.18632128c0-48.448171-38.365745-87.852988-85.535058-87.852988zM722.21611625 627.79756128c-24.526673 0-44.394648 21.375201-44.394647 47.740232s19.867975 47.740232 44.394647 47.740232 44.394648-21.375201 44.394648-47.740232-19.879393-47.740232-44.394648-47.740232z m199.753078 95.480464c24.526673 0 44.394648-21.375201 44.394647-47.740232s-19.867975-47.740232-44.394647-47.740232-44.383229 21.375201-44.383229 47.740232 19.867975 47.740232 44.383229 47.740232z m244.159143-47.740232c0-26.365031-19.879393-47.740232-44.394647-47.740232s-44.394648 21.375201-44.394648 47.740232 19.879393 47.740232 44.394648 47.740232 44.394648-21.375201 44.394647-47.740232z m0 0" fill="#2c2c2c" p-id="1920"></path><path d="M709.31335125 933.73012228l-9.134701 203.2471" fill="#2c2c2c" p-id="1921"></path><path d="M700.17865025 1152.96294928h-0.730776a15.985727 15.985727 0 0 1-15.254951-16.705084l9.134701-203.247101a16.001713 16.001713 0 1 1 31.971454 1.438715l-9.134701 203.247101a15.985727 15.985727 0 0 1-15.985727 15.266369z" fill="#2c2c2c" p-id="1922"></path></svg>