<?xml version="1.0" standalone="no"?><!DOCTYPE svg PUBLIC "-//W3C//DTD SVG 1.1//EN" "http://www.w3.org/Graphics/SVG/1.1/DTD/svg11.dtd"><svg t="1538029979546" class="icon" style="" viewBox="0 0 1024 1024" version="1.1" xmlns="http://www.w3.org/2000/svg" p-id="1896" xmlns:xlink="http://www.w3.org/1999/xlink" width="200" height="200"><defs><style type="text/css"></style></defs><path d="M512 1002.79166667C238.000085 1002.79166667 15.875 780.66658167 15.875 506.66666667S238.000085 10.54166667 512 10.54166667s496.125 222.125085 496.125 496.125-222.125085 496.125-496.125 496.125z m288.843975-523.47141C757.621565 425.83798167 648.9305 308.21666667 521.9225 308.21666667c-127.008 0-235.699065 117.621315-278.921475 171.10359a44.8497 44.8497 0 0 0 0 53.46243c43.22241 53.46243 151.913475 171.10359 278.921475 171.10359 127.008 0 235.699065-117.64116 278.921475-171.10359a44.8497 44.8497 0 0 0 0-53.46243zM521.9225 633.03962667c-68.088195 0-124.38846-57.490965-124.38846-127.008 0-69.49719 56.300265-126.96831 124.38846-126.96831 68.088195 0 124.408305 57.47112 124.408305 126.988155 0 69.49719-56.32011 126.988155-124.408305 126.988155z m-71.938125-127.008a71.938125 71.938125 0 1 0 143.87625 0 71.938125 71.938125 0 0 0-143.87625 0z" fill="#ffffff" p-id="1897"></path></svg>